<?xml version="1.0" encoding="utf-8"?>
<!-- Generator: Adobe Illustrator 27.2.0, SVG Export Plug-In . SVG Version: 6.00 Build 0)  -->
<svg version="1.1" id="Capa_1" xmlns="http://www.w3.org/2000/svg" xmlns:xlink="http://www.w3.org/1999/xlink" x="0px" y="0px"
	 viewBox="0 0 1080 1080" style="enable-background:new 0 0 1080 1080;" xml:space="preserve">
<style type="text/css">
	.st0{fill:#FFFFFF;}
	.st1{fill:#00569F;}
	.st2{fill:#080D2A;}
	.st3{fill:#03A9F4;}
	.st4{fill:#00EAB5;}
	.st5{fill:#512DA8;}
	.st6{fill:#414CD8;}
</style>
<g>
	<g>
		<path class="st0" d="M589.92,493.45c-35.6,0-35.6,27.81-35.6,46.22c0,18.41,0,46.22,35.6,46.22c35.6,0,35.6-27.81,35.6-46.22
			C625.52,521.27,625.52,493.45,589.92,493.45z M589.92,573.6c-21.11,0-23.31-10.34-23.31-33.93c0-23.59,2.21-33.93,23.31-33.93
			c21.11,0,23.31,10.34,23.31,33.93C613.23,563.26,611.03,573.6,589.92,573.6z M504.71,524.67l-21.73-31.22h-12.29v93.15h12.29
			v-75.49l21.73,31.22l21.73-31.22v75.49h12.29v-93.15h-12.29L504.71,524.67z M707.6,517.89c0-13.5-10.94-24.44-24.44-24.44h-45.21
			v93.15h12.29v-44.27h18.37l28.33,44.27h14.61l-28.34-44.27C696.68,542.31,707.6,531.38,707.6,517.89z M650.24,530.04v-24.3h32.92
			c6.71,0,12.15,5.44,12.15,12.15s-5.44,12.15-12.15,12.15v0H650.24z M898.4,493.45c-35.6,0-35.6,27.81-35.6,46.22
			c0,18.41,0,46.22,35.6,46.22c35.6,0,35.6-27.81,35.6-46.22C934,521.27,934,493.45,898.4,493.45z M898.4,573.6
			c-21.11,0-23.31-10.34-23.31-33.93c0-23.59,2.21-33.93,23.31-33.93c21.11,0,23.31,10.34,23.31,33.93
			C921.71,563.26,919.5,573.6,898.4,573.6z M728.45,493.4h-6.18v93.2h39.38v-12.39h-26.98V546.2h19.83l7.16-12.39h-26.98v-28.01
			h26.98V493.4h-33.18L728.45,493.4z M834.23,563.21l-43.46-69.81h-12.29v93.2h12.29v-69.76l43.46,69.76h12.29v-93.2h-12.29V563.21z
			"/>
	</g>
	<g>
		<g>
			<path class="st0" d="M245.11,493.4h-12.39v80.81h0v12.39h32.22l7.16-12.39h-26.98V493.4z M146,586.6h13.06l22.52-59l22.52,59
				h13.06l-35.58-93.2L146,586.6z M321.15,546.2l7.16-12.39h-26.98v-28.01h26.98V493.4h-33.18l-0.01,0h-6.19v93.2h39.38v-12.39
				h-26.98V546.2H321.15z M414.38,493.4h-14.72l-22.47,35.1l-22.47-35.1h-14.72l29.83,46.6l-29.82,46.6h14.72l22.47-35.1l22.47,35.1
				h14.71L384.56,540L414.38,493.4z"/>
		</g>
		<polygon class="st0" points="207.69,493.4 194.63,493.4 201.16,510.5 		"/>
	</g>
</g>
</svg>
